<?xml version="1.0" standalone="no"?>
<!DOCTYPE svg PUBLIC "-//W3C//DTD SVG 20010904//EN"
 "http://www.w3.org/TR/2001/REC-SVG-20010904/DTD/svg10.dtd">
<svg version="1.0" xmlns="http://www.w3.org/2000/svg"
 width="5344.000000pt" height="3506.000000pt" viewBox="0 0 5344.000000 3506.000000"
 preserveAspectRatio="xMidYMid meet">

<g transform="translate(0.000000,3506.000000) scale(0.100000,-0.100000)"
fill="#000000" stroke="none">
<path d="M14560 23619 c-188 -8 -255 -13 -620 -49 -296 -28 -635 -81 -1050
-164 -69 -14 -154 -30 -190 -36 -117 -20 -410 -105 -630 -182 -258 -90 -421
-159 -640 -271 -355 -181 -653 -391 -896 -632 -139 -139 -186 -191 -237 -260
-271 -375 -384 -674 -428 -1135 -43 -453 80 -875 364 -1253 174 -231 470 -521
742 -727 39 -29 88 -67 110 -85 72 -58 349 -243 496 -330 79 -47 151 -90 159
-95 18 -11 297 -163 400 -218 173 -92 1023 -512 1035 -512 2 0 65 -29 140 -65
75 -36 138 -65 141 -65 6 0 171 -75 312 -141 57 -27 106 -49 108 -49 2 0 32
-13 66 -29 35 -15 97 -43 138 -61 108 -46 310 -136 405 -180 22 -10 72 -33
110 -50 39 -18 108 -50 155 -72 47 -22 144 -67 215 -100 139 -64 713 -349 830
-413 39 -21 90 -49 115 -61 25 -13 68 -37 95 -54 28 -17 70 -42 95 -55 172
-97 558 -358 730 -494 461 -365 708 -646 884 -1005 111 -226 144 -318 192
-536 25 -115 28 -143 28 -340 0 -208 -1 -219 -32 -349 -80 -335 -244 -631
-494 -892 -68 -70 -234 -213 -295 -253 -21 -14 -57 -39 -80 -55 -101 -72 -297
-177 -473 -253 -36 -16 -202 -71 -320 -107 -83 -25 -359 -78 -475 -90 -550
-61 -1117 -12 -1780 155 -77 20 -185 49 -240 66 -55 17 -134 41 -175 53 -68
21 -210 69 -380 130 -185 65 -535 211 -745 310 -185 86 -522 258 -588 299 -12
7 -82 47 -155 87 -74 41 -141 79 -150 84 -10 6 -44 25 -77 44 -172 99 -667
417 -875 562 -25 18 -78 55 -118 83 -41 28 -93 65 -117 81 -23 17 -56 39 -71
50 -16 11 -58 42 -93 68 -47 34 -67 44 -72 35 -3 -7 -10 -71 -13 -143 -4 -71
-11 -177 -16 -235 -5 -58 -19 -247 -30 -420 -11 -173 -22 -333 -25 -355 -7
-51 -36 -498 -32 -501 1 -1 47 -16 102 -34 55 -18 125 -40 155 -51 54 -18 213
-66 380 -116 47 -14 112 -33 145 -44 155 -48 851 -224 1065 -269 365 -78 596
-121 834 -155 94 -14 177 -27 185 -30 18 -5 449 -61 581 -75 231 -25 525 -51
710 -62 275 -17 1255 -17 1500 0 176 12 708 67 740 77 8 2 65 11 125 20 626
88 1325 294 1806 531 110 55 299 157 349 189 19 12 64 41 100 63 92 59 94 60
194 134 244 179 449 378 662 641 8 10 41 57 73 105 245 367 375 698 443 1132
20 128 23 181 23 455 0 296 -1 317 -27 458 -81 435 -258 807 -558 1172 -233
284 -641 663 -1000 931 -183 137 -406 286 -620 414 -74 44 -142 85 -150 90 -8
5 -148 82 -310 170 -162 89 -302 166 -310 170 -8 5 -40 22 -70 37 -30 16 -125
65 -210 110 -316 166 -1099 555 -1460 726 -255 121 -308 146 -375 177 -76 35
-157 73 -335 157 -581 275 -1327 649 -1528 768 -9 6 -44 25 -77 44 -87 50
-248 153 -260 165 -5 6 -37 29 -69 51 -413 277 -717 577 -859 846 -83 159
-114 331 -97 544 32 397 206 691 540 915 36 24 77 51 92 61 52 36 232 122 332
158 265 99 641 177 1021 213 188 17 899 18 1050 0 677 -79 1416 -285 2245
-625 110 -45 151 -63 225 -97 33 -15 89 -40 125 -56 95 -43 537 -264 672 -336
178 -96 379 -208 418 -233 19 -12 107 -65 195 -117 238 -142 340 -206 574
-360 74 -49 135 -87 137 -86 1 2 7 73 13 158 7 85 16 198 21 250 6 52 21 248
35 435 14 187 27 356 30 375 7 48 36 432 33 435 -8 7 -698 185 -908 234 -252
59 -305 70 -506 111 -111 22 -246 45 -300 50 -96 10 -260 34 -293 44 -24 8
-414 64 -591 86 -85 10 -186 24 -225 29 -136 19 -803 71 -1054 81 -286 11
-913 11 -1191 -1z"/>
<path d="M21553 19568 c2 -2947 5 -3815 15 -3893 7 -55 19 -165 28 -245 17
-164 61 -413 105 -599 28 -118 143 -484 159 -506 4 -5 13 -28 20 -50 32 -102
207 -468 276 -576 15 -24 43 -69 62 -99 70 -111 88 -138 198 -285 306 -411
662 -736 1124 -1027 191 -121 416 -234 710 -358 222 -94 561 -201 773 -245 65
-14 122 -27 126 -29 12 -8 385 -75 501 -90 63 -9 147 -20 185 -25 269 -37
1097 -51 1425 -23 147 13 597 69 609 77 3 2 60 13 126 24 223 39 486 106 702
177 184 61 289 101 498 193 58 25 314 152 345 171 8 5 76 45 150 90 361 216
677 478 940 780 41 47 77 87 80 90 52 49 309 409 381 536 183 320 288 562 403
924 64 205 94 330 135 570 37 224 37 224 63 490 l22 225 3 3748 4 3747 -1326
0 -1325 0 0 -4397 c0 -2851 -4 -4473 -10 -4612 -26 -544 -147 -1024 -354
-1406 -40 -75 -168 -278 -186 -295 -3 -3 -17 -21 -31 -40 -74 -99 -291 -315
-375 -374 -194 -134 -273 -181 -404 -240 -422 -190 -994 -253 -1510 -167 -338
57 -602 154 -855 314 -277 176 -533 442 -715 741 -244 404 -380 896 -410 1491
-5 104 -9 2046 -10 4583 l0 4402 -1330 0 -1330 0 3 -3792z"/>
<path d="M33770 17550 l0 -5810 1325 0 1325 0 0 2334 0 2334 63 44 c176 125
414 278 432 278 3 0 40 19 82 43 89 48 191 93 312 136 422 152 740 65 982
-269 51 -70 101 -164 324 -605 125 -247 285 -562 355 -700 70 -137 176 -347
235 -465 60 -118 116 -226 126 -240 17 -26 100 -187 429 -835 100 -198 246
-484 323 -635 76 -151 209 -412 294 -580 86 -168 217 -425 292 -572 l136 -268
1322 0 1323 0 -11 27 c-5 15 -19 43 -29 63 -11 19 -85 170 -166 335 -144 295
-250 511 -517 1055 -74 151 -189 388 -257 525 -67 138 -272 552 -455 920 -183
369 -378 762 -433 875 -280 576 -424 865 -460 927 -114 195 -280 370 -464 489
-121 78 -382 200 -468 219 -17 4 -30 10 -30 13 0 4 79 26 176 50 296 73 501
148 784 289 164 82 200 102 334 192 112 75 267 190 291 215 6 6 48 45 95 86
164 145 306 297 424 455 41 55 83 111 93 125 76 101 264 444 313 571 11 30 27
68 35 84 7 17 25 64 40 105 167 477 226 947 176 1415 -20 189 -64 417 -101
528 -11 31 -20 62 -20 67 0 27 -98 269 -161 396 -60 124 -183 330 -231 389
-281 345 -476 516 -823 724 -78 47 -356 185 -395 196 -14 4 -38 13 -55 21 -16
8 -70 28 -120 45 -263 90 -476 137 -830 186 l-200 28 -3107 3 -3108 2 0 -5810z
m4385 5510 c688 -48 1220 -313 1639 -815 135 -163 215 -289 324 -510 54 -110
73 -157 138 -338 59 -167 130 -456 158 -647 67 -462 54 -979 -35 -1414 -169
-829 -575 -1448 -1124 -1715 -175 -86 -344 -121 -581 -121 -155 0 -275 -10
-487 -41 -528 -76 -1134 -332 -1677 -707 l-90 -62 0 3190 0 3190 798 0 c438 0
860 -5 937 -10z"/>
</g>
</svg>
